<mxfile host="app.diagrams.net" modified="2022-03-29T18:05:19.288Z" agent="5.0 (Windows NT 10.0; Win64; x64) AppleWebKit/537.36 (KHTML, like Gecko) Chrome/99.0.4844.82 Safari/537.36" etag="s715nqv7nL-pk1Mds-iv" version="17.2.4" type="github">
  <diagram id="rahY3ylAuWURlLl2n5CA" name="Page-1">
    <mxGraphModel dx="955" dy="972" grid="1" gridSize="10" guides="1" tooltips="1" connect="1" arrows="1" fold="1" page="1" pageScale="1" pageWidth="827" pageHeight="1169" math="0" shadow="0">
      <root>
        <mxCell id="0" />
        <mxCell id="1" parent="0" />
        <mxCell id="KS1t5UNcp-1xRHG_rXt6-1" value="Да" style="edgeStyle=none;rounded=0;orthogonalLoop=1;jettySize=auto;html=1;entryX=0.5;entryY=0;entryDx=0;entryDy=0;exitX=0.5;exitY=1;exitDx=0;exitDy=0;" edge="1" parent="1" source="KS1t5UNcp-1xRHG_rXt6-17" target="KS1t5UNcp-1xRHG_rXt6-5">
          <mxGeometry relative="1" as="geometry">
            <mxPoint x="179.5" y="160" as="sourcePoint" />
            <mxPoint x="179.5" y="330" as="targetPoint" />
          </mxGeometry>
        </mxCell>
        <mxCell id="KS1t5UNcp-1xRHG_rXt6-2" value="НАЧАЛО" style="ellipse;whiteSpace=wrap;html=1;" vertex="1" parent="1">
          <mxGeometry x="128.5" y="60" width="100" height="60" as="geometry" />
        </mxCell>
        <mxCell id="KS1t5UNcp-1xRHG_rXt6-3" value="Нет" style="edgeStyle=none;rounded=0;orthogonalLoop=1;jettySize=auto;html=1;exitX=1;exitY=0.5;exitDx=0;exitDy=0;" edge="1" parent="1" source="KS1t5UNcp-1xRHG_rXt6-5">
          <mxGeometry x="-0.8978" relative="1" as="geometry">
            <mxPoint x="180" y="670" as="targetPoint" />
            <Array as="points">
              <mxPoint x="270" y="400" />
              <mxPoint x="270" y="670" />
            </Array>
            <mxPoint as="offset" />
          </mxGeometry>
        </mxCell>
        <mxCell id="KS1t5UNcp-1xRHG_rXt6-24" value="Да" style="edgeStyle=orthogonalEdgeStyle;rounded=0;orthogonalLoop=1;jettySize=auto;html=1;" edge="1" parent="1" source="KS1t5UNcp-1xRHG_rXt6-5" target="KS1t5UNcp-1xRHG_rXt6-23">
          <mxGeometry relative="1" as="geometry" />
        </mxCell>
        <mxCell id="KS1t5UNcp-1xRHG_rXt6-5" value="&lt;span style=&quot;font-size: 14px ; text-align: left&quot;&gt;I&lt;/span&gt;%2&lt;span style=&quot;line-height: 115% ; font-family: &amp;#34;times new roman&amp;#34; , &amp;#34;serif&amp;#34;&quot;&gt;&lt;font style=&quot;font-size: 14px&quot;&gt;≠&lt;/font&gt;&lt;/span&gt;0" style="rhombus;whiteSpace=wrap;html=1;" vertex="1" parent="1">
          <mxGeometry x="138" y="360" width="81" height="80" as="geometry" />
        </mxCell>
        <mxCell id="KS1t5UNcp-1xRHG_rXt6-6" value="" style="edgeStyle=none;rounded=0;orthogonalLoop=1;jettySize=auto;html=1;" edge="1" parent="1" source="KS1t5UNcp-1xRHG_rXt6-7" target="KS1t5UNcp-1xRHG_rXt6-9">
          <mxGeometry relative="1" as="geometry" />
        </mxCell>
        <mxCell id="KS1t5UNcp-1xRHG_rXt6-7" value="S" style="shape=parallelogram;perimeter=parallelogramPerimeter;whiteSpace=wrap;html=1;fixedSize=1;" vertex="1" parent="1">
          <mxGeometry x="122.5" y="750" width="117.5" height="40" as="geometry" />
        </mxCell>
        <mxCell id="KS1t5UNcp-1xRHG_rXt6-8" style="edgeStyle=none;rounded=0;orthogonalLoop=1;jettySize=auto;html=1;exitX=0.5;exitY=1;exitDx=0;exitDy=0;" edge="1" parent="1" source="KS1t5UNcp-1xRHG_rXt6-7" target="KS1t5UNcp-1xRHG_rXt6-7">
          <mxGeometry relative="1" as="geometry" />
        </mxCell>
        <mxCell id="KS1t5UNcp-1xRHG_rXt6-9" value="ВЫХОД" style="ellipse;whiteSpace=wrap;html=1;" vertex="1" parent="1">
          <mxGeometry x="120" y="820" width="120" height="60" as="geometry" />
        </mxCell>
        <mxCell id="KS1t5UNcp-1xRHG_rXt6-10" value="Вариант 17/01&lt;br&gt;&lt;div&gt;1.Найти сумму всех нечетных отрицательных чисел диапазона [-20, 20]&lt;br&gt;&lt;/div&gt;" style="strokeWidth=2;html=1;shape=mxgraph.flowchart.annotation_2;align=left;labelPosition=right;pointerEvents=1;" vertex="1" parent="1">
          <mxGeometry x="364" y="47.5" width="50" height="85" as="geometry" />
        </mxCell>
        <mxCell id="KS1t5UNcp-1xRHG_rXt6-11" value="" style="endArrow=none;dashed=1;html=1;dashPattern=1 3;strokeWidth=2;rounded=0;exitX=1;exitY=0.5;exitDx=0;exitDy=0;entryX=0.52;entryY=0.512;entryDx=0;entryDy=0;entryPerimeter=0;" edge="1" parent="1" source="KS1t5UNcp-1xRHG_rXt6-2" target="KS1t5UNcp-1xRHG_rXt6-10">
          <mxGeometry width="50" height="50" relative="1" as="geometry">
            <mxPoint x="312" y="240" as="sourcePoint" />
            <mxPoint x="362" y="190" as="targetPoint" />
          </mxGeometry>
        </mxCell>
        <mxCell id="KS1t5UNcp-1xRHG_rXt6-12" value="S=0, I=-20&lt;br&gt;&lt;br&gt;пока I&amp;lt;=20 нц&lt;br&gt;&lt;span&gt;	&lt;/span&gt;&lt;span&gt;	&lt;/span&gt;&lt;br&gt;&lt;span&gt;&lt;/span&gt;&lt;font style=&quot;font-size: 14px&quot;&gt;&amp;nbsp; &amp;nbsp; если I%2&lt;span style=&quot;line-height: 115% ; font-family: &amp;#34;times new roman&amp;#34; , &amp;#34;serif&amp;#34;&quot;&gt;≠&lt;/span&gt;0 то&lt;br&gt;&lt;br&gt;&amp;nbsp; &amp;nbsp; &amp;nbsp; &amp;nbsp; &amp;nbsp;если I&amp;lt;0 то&lt;br&gt;&lt;br&gt;&amp;nbsp; &amp;nbsp; &amp;nbsp; &amp;nbsp; &amp;nbsp; &amp;nbsp; &amp;nbsp; S=S+I&lt;br&gt;&lt;/font&gt;&amp;nbsp; &amp;nbsp;&amp;nbsp;&lt;br&gt;&amp;nbsp; &amp;nbsp; I=I+1&lt;br&gt;&amp;nbsp; &amp;nbsp; &lt;br&gt;кц&lt;br&gt;&lt;br&gt;вывод (S)&amp;nbsp; &amp;nbsp; &amp;nbsp; &amp;nbsp;" style="strokeWidth=2;html=1;shape=mxgraph.flowchart.annotation_2;align=left;labelPosition=right;pointerEvents=1;verticalAlign=top;fontSize=14;spacing=2;spacingBottom=0;spacingLeft=0;spacingTop=0;horizontal=1;" vertex="1" parent="1">
          <mxGeometry x="368.5" y="240" width="50" height="260" as="geometry" />
        </mxCell>
        <mxCell id="KS1t5UNcp-1xRHG_rXt6-13" value="" style="endArrow=none;dashed=1;html=1;dashPattern=1 3;strokeWidth=2;rounded=0;exitX=1;exitY=0.5;exitDx=0;exitDy=0;entryX=0.52;entryY=0.512;entryDx=0;entryDy=0;entryPerimeter=0;" edge="1" parent="1" source="KS1t5UNcp-1xRHG_rXt6-2" target="KS1t5UNcp-1xRHG_rXt6-12">
          <mxGeometry width="50" height="50" relative="1" as="geometry">
            <mxPoint x="549.5" y="195" as="sourcePoint" />
            <mxPoint x="682" y="255" as="targetPoint" />
          </mxGeometry>
        </mxCell>
        <mxCell id="KS1t5UNcp-1xRHG_rXt6-14" value="S=S+&lt;span style=&quot;font-size: 14px ; text-align: left&quot;&gt;I&lt;/span&gt;" style="whiteSpace=wrap;html=1;" vertex="1" parent="1">
          <mxGeometry x="128.5" y="600" width="101" height="40" as="geometry" />
        </mxCell>
        <mxCell id="KS1t5UNcp-1xRHG_rXt6-16" value="Нет" style="endArrow=classic;html=1;rounded=0;exitX=1;exitY=0.5;exitDx=0;exitDy=0;entryX=0.5;entryY=0;entryDx=0;entryDy=0;" edge="1" parent="1" source="KS1t5UNcp-1xRHG_rXt6-17" target="KS1t5UNcp-1xRHG_rXt6-7">
          <mxGeometry x="-0.8628" width="50" height="50" relative="1" as="geometry">
            <mxPoint x="499.5" y="590" as="sourcePoint" />
            <mxPoint x="179.5" y="590" as="targetPoint" />
            <Array as="points">
              <mxPoint x="320" y="280" />
              <mxPoint x="320" y="700" />
              <mxPoint x="181" y="700" />
            </Array>
            <mxPoint as="offset" />
          </mxGeometry>
        </mxCell>
        <mxCell id="KS1t5UNcp-1xRHG_rXt6-17" value="I&amp;lt;=20" style="rhombus;whiteSpace=wrap;html=1;" vertex="1" parent="1">
          <mxGeometry x="140" y="240" width="80" height="80" as="geometry" />
        </mxCell>
        <mxCell id="KS1t5UNcp-1xRHG_rXt6-18" value="I=I+1" style="whiteSpace=wrap;html=1;" vertex="1" parent="1">
          <mxGeometry x="10" y="440" width="101" height="40" as="geometry" />
        </mxCell>
        <mxCell id="KS1t5UNcp-1xRHG_rXt6-19" value="" style="endArrow=classic;html=1;rounded=0;exitX=0.5;exitY=0;exitDx=0;exitDy=0;" edge="1" parent="1" source="KS1t5UNcp-1xRHG_rXt6-18">
          <mxGeometry width="50" height="50" relative="1" as="geometry">
            <mxPoint x="310" y="460" as="sourcePoint" />
            <mxPoint x="180" y="220" as="targetPoint" />
            <Array as="points">
              <mxPoint x="60" y="220" />
            </Array>
          </mxGeometry>
        </mxCell>
        <mxCell id="KS1t5UNcp-1xRHG_rXt6-20" value="" style="endArrow=classic;html=1;rounded=0;exitX=0.5;exitY=1;exitDx=0;exitDy=0;entryX=0.5;entryY=0;entryDx=0;entryDy=0;" edge="1" parent="1" source="KS1t5UNcp-1xRHG_rXt6-2" target="KS1t5UNcp-1xRHG_rXt6-17">
          <mxGeometry width="50" height="50" relative="1" as="geometry">
            <mxPoint x="310" y="460" as="sourcePoint" />
            <mxPoint x="360" y="410" as="targetPoint" />
          </mxGeometry>
        </mxCell>
        <mxCell id="KS1t5UNcp-1xRHG_rXt6-21" value="S=0, I=-20" style="rounded=0;whiteSpace=wrap;html=1;" vertex="1" parent="1">
          <mxGeometry x="123.75" y="150" width="109.5" height="40" as="geometry" />
        </mxCell>
        <mxCell id="KS1t5UNcp-1xRHG_rXt6-23" value="I&amp;lt;0" style="rhombus;whiteSpace=wrap;html=1;" vertex="1" parent="1">
          <mxGeometry x="139" y="480" width="80" height="80" as="geometry" />
        </mxCell>
        <mxCell id="KS1t5UNcp-1xRHG_rXt6-28" value="Да" style="endArrow=classic;html=1;rounded=0;exitX=0.5;exitY=1;exitDx=0;exitDy=0;" edge="1" parent="1" source="KS1t5UNcp-1xRHG_rXt6-23" target="KS1t5UNcp-1xRHG_rXt6-14">
          <mxGeometry width="50" height="50" relative="1" as="geometry">
            <mxPoint x="390" y="700" as="sourcePoint" />
            <mxPoint x="440" y="650" as="targetPoint" />
          </mxGeometry>
        </mxCell>
        <mxCell id="KS1t5UNcp-1xRHG_rXt6-29" value="Нет" style="endArrow=classic;html=1;rounded=0;" edge="1" parent="1">
          <mxGeometry width="50" height="50" relative="1" as="geometry">
            <mxPoint x="220" y="520" as="sourcePoint" />
            <mxPoint x="270" y="520" as="targetPoint" />
          </mxGeometry>
        </mxCell>
        <mxCell id="KS1t5UNcp-1xRHG_rXt6-30" value="" style="endArrow=classic;html=1;rounded=0;exitX=0.5;exitY=1;exitDx=0;exitDy=0;entryX=0.5;entryY=1;entryDx=0;entryDy=0;" edge="1" parent="1" source="KS1t5UNcp-1xRHG_rXt6-14" target="KS1t5UNcp-1xRHG_rXt6-18">
          <mxGeometry width="50" height="50" relative="1" as="geometry">
            <mxPoint x="390" y="700" as="sourcePoint" />
            <mxPoint x="440" y="650" as="targetPoint" />
            <Array as="points">
              <mxPoint x="180" y="670" />
              <mxPoint x="60" y="670" />
            </Array>
          </mxGeometry>
        </mxCell>
      </root>
    </mxGraphModel>
  </diagram>
</mxfile>
